<svg height="512pt" viewBox="0 -67 512 511" width="512pt" xmlns="http://www.w3.org/2000/svg"><path d="m440.730469 189.203125c0 53.183594-22 101.226563-57.402344 135.527344-33.960937 32.910156-80.257813 53.171875-131.296875 53.171875-104.214844 0-188.703125-84.488282-188.703125-188.699219 0-91.179687 64.675781-167.261719 150.652344-184.863281 12.289062-2.515625 25.015625-3.839844 38.050781-3.839844 104.210938 0 188.699219 84.488281 188.699219 188.703125zm0 0" fill="#64bdff"/><path d="m266.855469 377.324219c-4.886719.382812-9.839844.578125-14.824219.578125-104.214844 0-188.703125-84.488282-188.703125-188.699219 0-91.179687 64.675781-167.261719 150.652344-184.863281 12.289062-2.515625 25.015625-3.839844 38.050781-3.839844 4.996094 0 9.949219.199219 14.847656.570312-7.882812.621094-15.636718 1.714844-23.210937 3.269532-85.976563 17.601562-150.652344 93.683594-150.652344 184.863281 0 99.214844 76.570313 180.542969 173.839844 188.121094zm0 0" fill="#43a3f9"/><path d="m440.730469 188.65625c.152343 53.402344-21.878907 101.652344-57.402344 136.074219v-103.273438c0-6.039062-4.894531-10.933593-10.933594-10.933593h-39.289062c-6.039063 0-10.933594-4.894532-10.933594-10.933594v-47.007813c0-6.039062-4.894531-10.933593-10.933594-10.933593h-59.902343c-20.632813 0-37.355469-16.722657-37.355469-37.355469v-99.953125c12.441406-2.546875 25.324219-3.871094 38.519531-3.839844 4.800781.011719 9.546875.207031 14.257812.582031 96.820313 7.542969 173.6875 88.949219 173.972657 187.574219zm0 0" fill="#9be058"/><path d="m266.757812 1.082031c-7.839843.621094-15.558593 1.714844-23.09375 3.257813-10.222656 2.085937-20.140624 5.007812-29.683593 8.703125v-8.703125c12.441406-2.546875 25.324219-3.871094 38.519531-3.839844 4.800781.011719 9.546875.207031 14.257812.582031zm0 0" fill="#1cc939"/><path d="m234.941406 252.878906h-41.925781c-6.039063 0-10.933594-4.894531-10.933594-10.933594v-24.449218c0-6.039063 4.894531-10.933594 10.933594-10.933594h41.925781c6.039063 0 10.933594 4.894531 10.933594 10.933594v24.449218c0 6.039063-4.894531 10.933594-10.933594 10.933594zm0 0" fill="#9be058"/><path d="m512 142.523438c0 40.402343-32.78125 73.292968-73.148438 73.464843h-366.566406c-2.382812 0-4.714844.253907-6.964844.710938-15.429687 3.226562-27.050781 16.925781-27.050781 33.304687 0 18.753906 15.261719 34.019532 34.015625 34.019532h16.574219c8.148437 14.003906 18.054687 26.851562 29.402344 38.265624h-45.976563c-39.855468.003907-72.285156-32.429687-72.285156-72.285156 0-36.933594 27.847656-67.484375 63.648438-71.769531 2.832031-.339844 5.71875-.515625 8.636718-.515625h366.25c.621094 0 1.234375-.007812 1.847656-.042969 18.554688-.972656 33.347657-16.367187 33.347657-35.152343 0-19.40625-15.789063-35.1875-35.195313-35.1875h-311.789062c-10.570313 0-19.132813-8.570313-19.132813-19.132813 0-10.574219 8.5625-19.136719 19.132813-19.136719h311.789062c40.511719.003906 73.464844 32.957032 73.464844 73.457032zm0 0" fill="#e3f4ff"/><path d="m133.265625 88.199219c0 28.507812-23.109375 51.617187-51.617187 51.617187-28.507813 0-51.621094-23.109375-51.621094-51.617187 0-28.507813 23.113281-51.621094 51.621094-51.621094 28.507812 0 51.617187 23.113281 51.617187 51.621094zm0 0" fill="#fc3e81"/><g fill="#e3f4ff"><path d="m68.601562 85.417969h-2.164062c-4.269531 0-7.726562-3.457031-7.726562-7.726563 0-4.265625 3.457031-7.726562 7.726562-7.726562h2.164062c4.265626 0 7.726563 3.460937 7.726563 7.726562 0 4.269532-3.460937 7.726563-7.726563 7.726563zm0 0"/><path d="m96.859375 85.417969h-9.855469c-4.265625 0-7.726562-3.457031-7.726562-7.726563 0-4.265625 3.460937-7.726562 7.726562-7.726562h9.855469c4.269531 0 7.726563 3.460937 7.726563 7.726562 0 4.269532-3.457032 7.726563-7.726563 7.726563zm0 0"/><path d="m96.859375 105.832031h-30.421875c-4.269531 0-7.726562-3.460937-7.726562-7.726562 0-4.269531 3.457031-7.726563 7.726562-7.726563h30.421875c4.269531 0 7.726563 3.460938 7.726563 7.726563s-3.457032 7.726562-7.726563 7.726562zm0 0"/><path d="m193.722656 293.003906h-4.226562c-4.265625 0-7.726563-3.457031-7.726563-7.726562 0-4.265625 3.460938-7.726563 7.726563-7.726563h4.226562c4.265625 0 7.722656 3.460938 7.722656 7.726563 0 4.269531-3.457031 7.726562-7.722656 7.726562zm0 0"/><path d="m238.464844 293.003906h-26.339844c-4.265625 0-7.726562-3.457031-7.726562-7.726562 0-4.265625 3.460937-7.726563 7.726562-7.726563h26.339844c4.265625 0 7.726562 3.460938 7.726562 7.726563 0 4.269531-3.460937 7.726562-7.726562 7.726562zm0 0"/><path d="m238.464844 313.417969h-48.96875c-4.265625 0-7.726563-3.460938-7.726563-7.726563 0-4.269531 3.460938-7.726562 7.726563-7.726562h48.96875c4.265625 0 7.726562 3.457031 7.726562 7.726562 0 4.265625-3.460937 7.726563-7.726562 7.726563zm0 0"/><path d="m238.464844 333.832031h-48.96875c-4.265625 0-7.726563-3.460937-7.726563-7.726562 0-4.269531 3.460938-7.726563 7.726563-7.726563h48.96875c4.265625 0 7.726562 3.457032 7.726562 7.726563 0 4.265625-3.460937 7.726562-7.726562 7.726562zm0 0"/></g><path d="m329.84375 293.441406c0 12.3125-16.628906 34.351563-25.074219 44.75-2.480469 3.050782-7.125 3.050782-9.601562 0-8.445313-10.398437-25.074219-32.4375-25.074219-44.75 0-16.5 13.375-29.875 29.875-29.875s29.875 13.378906 29.875 29.875zm0 0" fill="#fc3e81"/><path d="m352.921875 257.632812c-4.265625 0-7.769531-3.460937-7.769531-7.726562 0-4.269531 3.417968-7.726562 7.683594-7.726562h.085937c4.269531 0 7.726563 3.457031 7.726563 7.726562 0 4.265625-3.457032 7.726562-7.726563 7.726562zm0 0" fill="#43a3f9"/><path d="m294.472656 44.304688c-4.226562 0-7.714844-3.394532-7.769531-7.632813-.046875-4.265625 3.328125-7.765625 7.59375-7.816406h.085937.09375c4.226563 0 7.675782 3.398437 7.722657 7.632812.050781 4.269531-3.367188 7.769531-7.632813 7.816407-.03125 0-.0625 0-.09375 0zm0 0" fill="#1cc939"/><path d="m392.070312 143.148438c-4.269531 0-7.769531-3.457032-7.769531-7.726563 0-4.265625 3.414063-7.722656 7.683594-7.722656h.085937c4.265626 0 7.726563 3.457031 7.726563 7.722656 0 4.269531-3.460937 7.726563-7.726563 7.726563zm0 0" fill="#1cc939"/><path d="m372.296875 152.121094c-4.222656 0-7.714844-3.398438-7.765625-7.632813-.050781-4.269531 3.324219-7.769531 7.59375-7.816406h.085938c.027343-.003906.058593-.003906.09375-.003906 4.222656 0 7.671874 3.402343 7.722656 7.636719.046875 4.269531-3.367188 7.769531-7.636719 7.816406-.03125 0-.0625 0-.09375 0zm0 0" fill="#1cc939"/></svg>